<?xml version="1.0" encoding="utf-8"?>
<!-- Generator: Adobe Illustrator 19.1.0, SVG Export Plug-In . SVG Version: 6.00 Build 0)  -->
<svg version="1.1" id="James_Y_Rauhut" xmlns="http://www.w3.org/2000/svg" xmlns:xlink="http://www.w3.org/1999/xlink" x="0px"
   y="0px" viewBox="0 0 500 500" style="enable-background:new 0 0 500 500;" xml:space="preserve">
<style type="text/css">
  .st0{fill:#FFB848;}
  .st1{fill:#FFFFFF;}
  .st2{font-family:'OpenSans-Light';}
  .st3{font-size:65px;}
  .st4{clip-path:url(#SVGID_2_);}
</style>
  <g class="sun">
    <circle class="st0" cx="250" cy="250" r="150"/>
    <text transform="matrix(1 0 0 1 140.0891 235.2488)"><tspan x="0" y="0" class="st1 st2 st3">James Y</tspan><tspan x="7.6" y="72" class="st1 st2 st3">Rauhut</tspan></text>
  </g>
  <g class="shine" style="transform-origin: 50% 50%;">
    <defs>
      <path id="SVGID_1_" d="M500,250c0,138.1-111.9,250-250,250S0,388.1,0,250S111.9,0,250,0S500,111.9,500,250z M250,62.5
        C146.4,62.5,62.5,146.4,62.5,250S146.4,437.5,250,437.5S437.5,353.6,437.5,250S353.6,62.5,250,62.5z"/>
    </defs>
    <clipPath id="SVGID_2_">
      <use xlink:href="#SVGID_1_"  style="overflow:visible;"/>
    </clipPath>
    <g class="st4">
      <polygon class="st0" points="160.4,92.1 154.3,18.3 202.2,74.8     "/>
      <polygon class="st0" points="339.5,406.5 345.6,480.3 297.8,423.8    "/>
      <polygon class="st0" points="92.5,339.5 18.7,345.6 75.2,297.8     "/>
      <polygon class="st0" points="406.9,160.4 480.7,154.3 424.2,202.2    "/>
      <polygon class="st0" points="76.1,200.9 19.6,153 93.4,159.1     "/>
      <polygon class="st0" points="425.1,296.5 481.6,344.3 407.8,338.2    "/>
      <polygon class="st0" points="203.1,423.8 155.2,480.3 161.3,406.5    "/>
      <polygon class="st0" points="298.7,74.8 346.6,18.3 340.5,92.1     "/>
    </g>
  </g>
  <script>
    var shineAnimation = document.querySelector('.shine').animate([
    {transform: 'rotate(0deg)'},
    {transform: 'rotate(360deg)'}
], {
    duration: 20000,
    iterations: Infinity
});</script>
</svg>
