<?xml version="1.0" encoding="utf-8"?>
<!-- Generator: Adobe Illustrator 19.1.0, SVG Export Plug-In . SVG Version: 6.00 Build 0)  -->
<svg version="1.1" id="James_Y_Rauhut" xmlns="http://www.w3.org/2000/svg" xmlns:xlink="http://www.w3.org/1999/xlink" x="0px"
	 y="0px" viewBox="0 0 600 600" style="enable-background:new 0 0 600 600;" xml:space="preserve">
	<style type="text/css">
		.shine{transform-origin: 50% 50%;}
		.st0{fill:#FFB848;stroke:#FFFFFF;stroke-width:2;stroke-miterlimit:10;}
		.st1{fill:#FFFFFF;}
		.st2{font-family:'OpenSans-Light';}
		.st3{font-size:4.236em;}
	</style>
	<g>
		<circle class="st0" cx="250" cy="250" r="150"/>
		<text transform="matrix(1 0 0 1 140.0891 235.2488)" class="st1 st2 st3">James Y</text>
		<text transform="matrix(1 0 0 1 147.6891 307.2488)" class="st1 st2 st3">Rauhut</text>
	</g>
	<g class="shine">
			<polygon class="st0" points="160.4,92.1 154.3,18.3 202.2,74.8"/>
			<polygon class="st0" points="339.5,406.5 345.6,480.3 297.8,423.8"/>
			<polygon class="st0" points="92.5,339.5 18.7,345.6 75.2,297.8"/>
			<polygon class="st0" points="406.9,160.4 480.7,154.3 424.2,202.2"/>
			<polygon class="st0" points="76.1,200.9 19.6,153 93.4,159.1"/>
			<polygon class="st0" points="425.1,296.5 481.6,344.3 407.8,338.2"/>
			<polygon class="st0" points="203.1,423.8 155.2,480.3 161.3,406.5"/>
			<polygon class="st0" points="298.7,74.8 346.6,18.3 340.5,92.1"/>
	</g>
	<script>
		var shineAnimation = document.querySelector('.shine').animate([
		    {transform: 'rotate(0deg)'},
		    {transform: 'rotate(360deg)'}
		], {
		    duration: 20000,
		    iterations: Infinity
		});
	</script>
</svg>
